<mxfile host="app.diagrams.net" modified="2020-12-05T17:55:14.778Z" agent="5.0 (X11; Linux x86_64) AppleWebKit/537.36 (KHTML, like Gecko) Chrome/86.0.4240.198 Safari/537.36" etag="3W74hHiTtaMCQmsgMTJr" version="13.10.4" type="github">
  <diagram id="C5RBs43oDa-KdzZeNtuy" name="Page-1">
    <mxGraphModel dx="868" dy="521" grid="1" gridSize="10" guides="1" tooltips="1" connect="1" arrows="1" fold="1" page="1" pageScale="1" pageWidth="827" pageHeight="1169" math="0" shadow="0">
      <root>
        <mxCell id="WIyWlLk6GJQsqaUBKTNV-0" />
        <mxCell id="WIyWlLk6GJQsqaUBKTNV-1" parent="WIyWlLk6GJQsqaUBKTNV-0" />
        <mxCell id="VpD8w-KAUAByEMXQQ5Yl-3" value="Ansible Role:&amp;nbsp;alexismaior.ansible_role_manage_rancher_cluster&lt;br&gt;" style="verticalLabelPosition=bottom;verticalAlign=top;html=1;shape=mxgraph.basic.diag_round_rect;dx=6;fontSize=11;labelBackgroundColor=none;fillColor=none;dashed=1;" parent="WIyWlLk6GJQsqaUBKTNV-1" vertex="1">
          <mxGeometry x="315" y="220" width="440" height="293" as="geometry" />
        </mxCell>
        <mxCell id="WIyWlLk6GJQsqaUBKTNV-2" value="" style="rounded=0;html=1;jettySize=auto;orthogonalLoop=1;fontSize=11;endArrow=block;endFill=0;endSize=8;strokeWidth=1;shadow=0;labelBackgroundColor=none;edgeStyle=orthogonalEdgeStyle;" parent="WIyWlLk6GJQsqaUBKTNV-1" source="JwHX2udDNT2M7cvMBdkV-4" target="JwHX2udDNT2M7cvMBdkV-0" edge="1">
          <mxGeometry relative="1" as="geometry">
            <mxPoint x="235" y="120" as="sourcePoint" />
          </mxGeometry>
        </mxCell>
        <mxCell id="WIyWlLk6GJQsqaUBKTNV-4" value="No" style="rounded=0;html=1;jettySize=auto;orthogonalLoop=1;fontSize=11;endArrow=block;endFill=0;endSize=8;strokeWidth=1;shadow=0;labelBackgroundColor=none;edgeStyle=orthogonalEdgeStyle;" parent="WIyWlLk6GJQsqaUBKTNV-1" source="WIyWlLk6GJQsqaUBKTNV-6" target="WIyWlLk6GJQsqaUBKTNV-11" edge="1">
          <mxGeometry y="20" relative="1" as="geometry">
            <mxPoint as="offset" />
            <mxPoint x="415" y="443" as="targetPoint" />
          </mxGeometry>
        </mxCell>
        <mxCell id="WIyWlLk6GJQsqaUBKTNV-5" value="Yes" style="edgeStyle=orthogonalEdgeStyle;rounded=0;html=1;jettySize=auto;orthogonalLoop=1;fontSize=11;endArrow=block;endFill=0;endSize=8;strokeWidth=1;shadow=0;labelBackgroundColor=none;" parent="WIyWlLk6GJQsqaUBKTNV-1" source="WIyWlLk6GJQsqaUBKTNV-6" target="ro4fjz_k7fc-FlAlumym-7" edge="1">
          <mxGeometry y="10" relative="1" as="geometry">
            <mxPoint as="offset" />
            <mxPoint x="585" y="278" as="targetPoint" />
          </mxGeometry>
        </mxCell>
        <mxCell id="WIyWlLk6GJQsqaUBKTNV-6" value="Check if cluster already exists" style="rhombus;whiteSpace=wrap;html=1;shadow=0;fontFamily=Helvetica;fontSize=12;align=center;strokeWidth=1;spacing=6;spacingTop=-4;" parent="WIyWlLk6GJQsqaUBKTNV-1" vertex="1">
          <mxGeometry x="355" y="235" width="120" height="90" as="geometry" />
        </mxCell>
        <mxCell id="ro4fjz_k7fc-FlAlumym-2" value="" style="edgeStyle=orthogonalEdgeStyle;rounded=0;orthogonalLoop=1;jettySize=auto;html=1;" parent="WIyWlLk6GJQsqaUBKTNV-1" source="WIyWlLk6GJQsqaUBKTNV-11" target="ro4fjz_k7fc-FlAlumym-1" edge="1">
          <mxGeometry relative="1" as="geometry" />
        </mxCell>
        <mxCell id="WIyWlLk6GJQsqaUBKTNV-11" value="Create Cluster" style="rounded=1;whiteSpace=wrap;html=1;fontSize=12;glass=0;strokeWidth=1;shadow=0;" parent="WIyWlLk6GJQsqaUBKTNV-1" vertex="1">
          <mxGeometry x="355" y="373" width="120" height="40" as="geometry" />
        </mxCell>
        <mxCell id="ro4fjz_k7fc-FlAlumym-0" value="Begin" style="ellipse;whiteSpace=wrap;html=1;aspect=fixed;" parent="WIyWlLk6GJQsqaUBKTNV-1" vertex="1">
          <mxGeometry y="40" width="60" height="60" as="geometry" />
        </mxCell>
        <mxCell id="ro4fjz_k7fc-FlAlumym-10" style="edgeStyle=orthogonalEdgeStyle;rounded=0;orthogonalLoop=1;jettySize=auto;html=1;entryX=0;entryY=0.75;entryDx=0;entryDy=0;" parent="WIyWlLk6GJQsqaUBKTNV-1" source="ro4fjz_k7fc-FlAlumym-1" target="ro4fjz_k7fc-FlAlumym-7" edge="1">
          <mxGeometry relative="1" as="geometry" />
        </mxCell>
        <mxCell id="ro4fjz_k7fc-FlAlumym-1" value="Create Cluster Token" style="whiteSpace=wrap;html=1;rounded=1;shadow=0;strokeWidth=1;glass=0;" parent="WIyWlLk6GJQsqaUBKTNV-1" vertex="1">
          <mxGeometry x="355" y="433" width="120" height="40" as="geometry" />
        </mxCell>
        <mxCell id="ro4fjz_k7fc-FlAlumym-9" style="edgeStyle=orthogonalEdgeStyle;rounded=0;orthogonalLoop=1;jettySize=auto;html=1;entryX=0.5;entryY=0;entryDx=0;entryDy=0;" parent="WIyWlLk6GJQsqaUBKTNV-1" source="ro4fjz_k7fc-FlAlumym-7" target="ro4fjz_k7fc-FlAlumym-8" edge="1">
          <mxGeometry relative="1" as="geometry" />
        </mxCell>
        <mxCell id="ro4fjz_k7fc-FlAlumym-7" value="Get Cluster ID" style="whiteSpace=wrap;html=1;rounded=1;shadow=0;strokeWidth=1;glass=0;" parent="WIyWlLk6GJQsqaUBKTNV-1" vertex="1">
          <mxGeometry x="534" y="265" width="120" height="30" as="geometry" />
        </mxCell>
        <mxCell id="ro4fjz_k7fc-FlAlumym-12" value="" style="edgeStyle=orthogonalEdgeStyle;rounded=0;orthogonalLoop=1;jettySize=auto;html=1;" parent="WIyWlLk6GJQsqaUBKTNV-1" source="ro4fjz_k7fc-FlAlumym-8" target="ro4fjz_k7fc-FlAlumym-11" edge="1">
          <mxGeometry relative="1" as="geometry" />
        </mxCell>
        <mxCell id="ro4fjz_k7fc-FlAlumym-8" value="Get Installed Node List" style="whiteSpace=wrap;html=1;rounded=1;shadow=0;strokeWidth=1;glass=0;" parent="WIyWlLk6GJQsqaUBKTNV-1" vertex="1">
          <mxGeometry x="534" y="323" width="120" height="30" as="geometry" />
        </mxCell>
        <mxCell id="ro4fjz_k7fc-FlAlumym-14" value="" style="edgeStyle=orthogonalEdgeStyle;rounded=0;orthogonalLoop=1;jettySize=auto;html=1;" parent="WIyWlLk6GJQsqaUBKTNV-1" source="ro4fjz_k7fc-FlAlumym-11" target="ro4fjz_k7fc-FlAlumym-13" edge="1">
          <mxGeometry relative="1" as="geometry" />
        </mxCell>
        <mxCell id="ro4fjz_k7fc-FlAlumym-11" value="Create Add Node Command" style="whiteSpace=wrap;html=1;rounded=1;shadow=0;strokeWidth=1;glass=0;" parent="WIyWlLk6GJQsqaUBKTNV-1" vertex="1">
          <mxGeometry x="534" y="383" width="121" height="30" as="geometry" />
        </mxCell>
        <mxCell id="ro4fjz_k7fc-FlAlumym-16" style="edgeStyle=orthogonalEdgeStyle;rounded=0;orthogonalLoop=1;jettySize=auto;html=1;exitX=1;exitY=0.5;exitDx=0;exitDy=0;entryX=0;entryY=0.5;entryDx=0;entryDy=0;" parent="WIyWlLk6GJQsqaUBKTNV-1" source="ro4fjz_k7fc-FlAlumym-13" edge="1">
          <mxGeometry relative="1" as="geometry">
            <mxPoint x="715" y="458.5" as="targetPoint" />
          </mxGeometry>
        </mxCell>
        <mxCell id="ro4fjz_k7fc-FlAlumym-13" value="Execute Command on Nodes" style="whiteSpace=wrap;html=1;rounded=1;shadow=0;strokeWidth=1;glass=0;" parent="WIyWlLk6GJQsqaUBKTNV-1" vertex="1">
          <mxGeometry x="536.5" y="441" width="115.5" height="35" as="geometry" />
        </mxCell>
        <mxCell id="VpD8w-KAUAByEMXQQ5Yl-11" style="edgeStyle=orthogonalEdgeStyle;rounded=0;orthogonalLoop=1;jettySize=auto;html=1;exitX=1;exitY=0.5;exitDx=0;exitDy=0;entryX=0;entryY=0.5;entryDx=0;entryDy=0;fontSize=11;fontColor=#000000;" parent="WIyWlLk6GJQsqaUBKTNV-1" source="ro4fjz_k7fc-FlAlumym-15" target="VpD8w-KAUAByEMXQQ5Yl-6" edge="1">
          <mxGeometry relative="1" as="geometry" />
        </mxCell>
        <mxCell id="ro4fjz_k7fc-FlAlumym-15" value="Wait for cluster ready" style="ellipse;whiteSpace=wrap;html=1;aspect=fixed;" parent="WIyWlLk6GJQsqaUBKTNV-1" vertex="1">
          <mxGeometry x="677" y="428" width="59" height="59" as="geometry" />
        </mxCell>
        <mxCell id="ro4fjz_k7fc-FlAlumym-17" value="End" style="ellipse;whiteSpace=wrap;html=1;aspect=fixed;" parent="WIyWlLk6GJQsqaUBKTNV-1" vertex="1">
          <mxGeometry x="948" y="448" width="59" height="59" as="geometry" />
        </mxCell>
        <mxCell id="JwHX2udDNT2M7cvMBdkV-2" value="Yes" style="edgeStyle=orthogonalEdgeStyle;rounded=0;orthogonalLoop=1;jettySize=auto;html=1;exitX=0.5;exitY=1;exitDx=0;exitDy=0;entryX=0.5;entryY=0;entryDx=0;entryDy=0;" parent="WIyWlLk6GJQsqaUBKTNV-1" source="JwHX2udDNT2M7cvMBdkV-0" target="JwHX2udDNT2M7cvMBdkV-1" edge="1">
          <mxGeometry relative="1" as="geometry">
            <mxPoint x="393" y="115" as="sourcePoint" />
          </mxGeometry>
        </mxCell>
        <mxCell id="JwHX2udDNT2M7cvMBdkV-8" value="No" style="edgeStyle=orthogonalEdgeStyle;rounded=0;orthogonalLoop=1;jettySize=auto;html=1;exitX=1;exitY=0.5;exitDx=0;exitDy=0;" parent="WIyWlLk6GJQsqaUBKTNV-1" source="JwHX2udDNT2M7cvMBdkV-0" target="DnFhQKGukb17FfHY5F8F-0" edge="1">
          <mxGeometry relative="1" as="geometry">
            <mxPoint x="330" y="165" as="targetPoint" />
          </mxGeometry>
        </mxCell>
        <mxCell id="JwHX2udDNT2M7cvMBdkV-0" value="Inventory Empty?" style="rhombus;whiteSpace=wrap;html=1;shadow=0;fontFamily=Helvetica;fontSize=12;align=center;strokeWidth=1;spacing=6;spacingTop=-4;" parent="WIyWlLk6GJQsqaUBKTNV-1" vertex="1">
          <mxGeometry x="140" y="120" width="120" height="90" as="geometry" />
        </mxCell>
        <mxCell id="JwHX2udDNT2M7cvMBdkV-7" style="edgeStyle=orthogonalEdgeStyle;rounded=0;orthogonalLoop=1;jettySize=auto;html=1;exitX=0;exitY=0.5;exitDx=0;exitDy=0;entryX=0;entryY=0.75;entryDx=0;entryDy=0;" parent="WIyWlLk6GJQsqaUBKTNV-1" source="JwHX2udDNT2M7cvMBdkV-1" target="JwHX2udDNT2M7cvMBdkV-4" edge="1">
          <mxGeometry relative="1" as="geometry" />
        </mxCell>
        <mxCell id="JwHX2udDNT2M7cvMBdkV-1" value="Provision VM &lt;br&gt;&lt;font style=&quot;font-size: 9px&quot;&gt;(Ansible Role:&amp;nbsp;jtyr.ansible_vmware_vm_provisioning)&amp;nbsp;&lt;/font&gt;" style="rounded=1;whiteSpace=wrap;html=1;fontSize=12;glass=0;strokeWidth=1;shadow=0;" parent="WIyWlLk6GJQsqaUBKTNV-1" vertex="1">
          <mxGeometry x="90" y="260" width="220" height="40" as="geometry" />
        </mxCell>
        <mxCell id="JwHX2udDNT2M7cvMBdkV-4" value="Get VM Inventory&lt;br&gt;&lt;span style=&quot;font-size: 9px&quot;&gt;(Dynamic Inventory:&amp;nbsp;VMWare Community)&lt;/span&gt;" style="rounded=1;whiteSpace=wrap;html=1;fontSize=12;glass=0;strokeWidth=1;shadow=0;" parent="WIyWlLk6GJQsqaUBKTNV-1" vertex="1">
          <mxGeometry x="95" y="50" width="210" height="40" as="geometry" />
        </mxCell>
        <mxCell id="JwHX2udDNT2M7cvMBdkV-5" value="" style="rounded=0;html=1;jettySize=auto;orthogonalLoop=1;fontSize=11;endArrow=block;endFill=0;endSize=8;strokeWidth=1;shadow=0;labelBackgroundColor=none;edgeStyle=orthogonalEdgeStyle;entryX=0;entryY=0.5;entryDx=0;entryDy=0;" parent="WIyWlLk6GJQsqaUBKTNV-1" source="ro4fjz_k7fc-FlAlumym-0" target="JwHX2udDNT2M7cvMBdkV-4" edge="1">
          <mxGeometry relative="1" as="geometry">
            <mxPoint x="60" y="70" as="sourcePoint" />
            <mxPoint x="220" y="70" as="targetPoint" />
          </mxGeometry>
        </mxCell>
        <mxCell id="VpD8w-KAUAByEMXQQ5Yl-12" style="edgeStyle=orthogonalEdgeStyle;rounded=0;orthogonalLoop=1;jettySize=auto;html=1;exitX=0.5;exitY=1;exitDx=0;exitDy=0;fontSize=11;fontColor=#000000;" parent="WIyWlLk6GJQsqaUBKTNV-1" source="VpD8w-KAUAByEMXQQ5Yl-6" target="VpD8w-KAUAByEMXQQ5Yl-7" edge="1">
          <mxGeometry relative="1" as="geometry" />
        </mxCell>
        <mxCell id="VpD8w-KAUAByEMXQQ5Yl-6" value="Get kubeconfig from new Cluster" style="whiteSpace=wrap;html=1;rounded=1;shadow=0;strokeWidth=1;glass=0;" parent="WIyWlLk6GJQsqaUBKTNV-1" vertex="1">
          <mxGeometry x="789.5" y="220" width="115.5" height="35" as="geometry" />
        </mxCell>
        <mxCell id="VpD8w-KAUAByEMXQQ5Yl-13" style="edgeStyle=orthogonalEdgeStyle;rounded=0;orthogonalLoop=1;jettySize=auto;html=1;exitX=0.5;exitY=1;exitDx=0;exitDy=0;fontSize=11;fontColor=#000000;" parent="WIyWlLk6GJQsqaUBKTNV-1" source="VpD8w-KAUAByEMXQQ5Yl-7" target="VpD8w-KAUAByEMXQQ5Yl-8" edge="1">
          <mxGeometry relative="1" as="geometry" />
        </mxCell>
        <mxCell id="VpD8w-KAUAByEMXQQ5Yl-7" value="Register DNS entry for ingress" style="whiteSpace=wrap;html=1;rounded=1;shadow=0;strokeWidth=1;glass=0;" parent="WIyWlLk6GJQsqaUBKTNV-1" vertex="1">
          <mxGeometry x="789.5" y="280" width="115.5" height="35" as="geometry" />
        </mxCell>
        <mxCell id="VpD8w-KAUAByEMXQQ5Yl-14" style="edgeStyle=orthogonalEdgeStyle;rounded=0;orthogonalLoop=1;jettySize=auto;html=1;exitX=0.5;exitY=1;exitDx=0;exitDy=0;entryX=0.5;entryY=0;entryDx=0;entryDy=0;fontSize=11;fontColor=#000000;" parent="WIyWlLk6GJQsqaUBKTNV-1" source="VpD8w-KAUAByEMXQQ5Yl-8" target="VpD8w-KAUAByEMXQQ5Yl-9" edge="1">
          <mxGeometry relative="1" as="geometry" />
        </mxCell>
        <mxCell id="VpD8w-KAUAByEMXQQ5Yl-8" value="Add Helm repository" style="whiteSpace=wrap;html=1;rounded=1;shadow=0;strokeWidth=1;glass=0;" parent="WIyWlLk6GJQsqaUBKTNV-1" vertex="1">
          <mxGeometry x="789.5" y="343" width="115.5" height="35" as="geometry" />
        </mxCell>
        <mxCell id="VpD8w-KAUAByEMXQQ5Yl-15" style="edgeStyle=orthogonalEdgeStyle;rounded=0;orthogonalLoop=1;jettySize=auto;html=1;exitX=0.5;exitY=1;exitDx=0;exitDy=0;fontSize=11;fontColor=#000000;" parent="WIyWlLk6GJQsqaUBKTNV-1" source="VpD8w-KAUAByEMXQQ5Yl-9" target="VpD8w-KAUAByEMXQQ5Yl-10" edge="1">
          <mxGeometry relative="1" as="geometry" />
        </mxCell>
        <mxCell id="VpD8w-KAUAByEMXQQ5Yl-9" value="Deploy Helm chart(s) on Cluster" style="whiteSpace=wrap;html=1;rounded=1;shadow=0;strokeWidth=1;glass=0;" parent="WIyWlLk6GJQsqaUBKTNV-1" vertex="1">
          <mxGeometry x="789.5" y="404" width="115.5" height="35" as="geometry" />
        </mxCell>
        <mxCell id="VpD8w-KAUAByEMXQQ5Yl-16" style="edgeStyle=orthogonalEdgeStyle;rounded=0;orthogonalLoop=1;jettySize=auto;html=1;exitX=1;exitY=0.5;exitDx=0;exitDy=0;fontSize=11;fontColor=#000000;" parent="WIyWlLk6GJQsqaUBKTNV-1" source="VpD8w-KAUAByEMXQQ5Yl-10" target="ro4fjz_k7fc-FlAlumym-17" edge="1">
          <mxGeometry relative="1" as="geometry" />
        </mxCell>
        <mxCell id="VpD8w-KAUAByEMXQQ5Yl-10" value="Send Message to Telegram" style="whiteSpace=wrap;html=1;rounded=1;shadow=0;strokeWidth=1;glass=0;" parent="WIyWlLk6GJQsqaUBKTNV-1" vertex="1">
          <mxGeometry x="789.5" y="460" width="115.5" height="35" as="geometry" />
        </mxCell>
        <mxCell id="X-Z2xG93Tp4wt_VPk78W-0" style="edgeStyle=orthogonalEdgeStyle;rounded=0;orthogonalLoop=1;jettySize=auto;html=1;exitX=0.5;exitY=1;exitDx=0;exitDy=0;entryX=0.5;entryY=0;entryDx=0;entryDy=0;" edge="1" parent="WIyWlLk6GJQsqaUBKTNV-1" source="DnFhQKGukb17FfHY5F8F-0" target="WIyWlLk6GJQsqaUBKTNV-6">
          <mxGeometry relative="1" as="geometry" />
        </mxCell>
        <mxCell id="DnFhQKGukb17FfHY5F8F-0" value="&lt;font&gt;Install K3s Cluster&amp;nbsp;&lt;br&gt;&lt;/font&gt;&lt;font style=&quot;font-size: 9px&quot;&gt;(Ansible Role: xanmanning.k3s)&amp;nbsp;&lt;/font&gt;" style="rounded=1;whiteSpace=wrap;html=1;fontSize=12;glass=0;strokeWidth=1;shadow=0;" parent="WIyWlLk6GJQsqaUBKTNV-1" vertex="1">
          <mxGeometry x="335" y="145" width="160" height="40" as="geometry" />
        </mxCell>
      </root>
    </mxGraphModel>
  </diagram>
</mxfile>
